<svg width="1178" height="391" viewBox="0 0 1178 391" fill="none" xmlns="http://www.w3.org/2000/svg">
<path d="M5.48001e-05 309.43V9.33459H44.9931V143.04H88.2883L179.972 9.33459H231.332L127.339 157.048L231.757 309.43H179.123L91.684 184.213H44.9931V309.43H5.48001e-05ZM341.958 311.976C318.754 311.976 299.087 307.307 282.957 297.969C266.828 288.348 254.518 274.907 246.029 257.645C237.823 240.384 233.72 220.434 233.72 197.796C233.72 174.875 237.964 154.925 246.454 137.947C254.943 120.685 267.252 107.244 283.382 97.6228C299.512 87.7187 319.178 82.7666 342.382 82.7666C365.586 82.7666 385.253 87.7187 401.383 97.6228C417.512 107.244 429.68 120.685 437.886 137.947C446.093 155.208 450.196 175.299 450.196 198.22C450.196 220.575 445.951 240.384 437.462 257.645C429.256 274.907 417.088 288.348 400.958 297.969C385.111 307.307 365.445 311.976 341.958 311.976ZM341.958 272.926C357.238 272.926 369.548 269.53 378.886 262.739C388.507 255.947 395.582 246.892 400.109 235.573C404.637 223.971 406.901 211.379 406.901 197.796C406.901 184.213 404.637 171.762 400.109 160.443C395.582 149.124 388.507 140.069 378.886 133.278C369.548 126.203 357.238 122.666 341.958 122.666C326.96 122.666 314.651 126.203 305.03 133.278C295.408 140.069 288.334 149.124 283.806 160.443C279.562 171.762 277.439 184.213 277.439 197.796C277.439 211.662 279.562 224.254 283.806 235.573C288.334 246.892 295.408 255.947 305.03 262.739C314.651 269.53 326.96 272.926 341.958 272.926ZM473.84 309.43V85.7379H515.013L517.559 112.055C522.653 104.697 528.312 99.0377 534.538 95.0761C541.046 90.8314 547.979 87.7187 555.336 85.7379C562.694 83.757 570.193 82.7666 577.833 82.7666C592.831 82.7666 605.14 85.8793 614.761 92.1048C624.665 98.3303 632.306 106.82 637.682 117.573C643.059 109.932 649.143 103.565 655.934 98.4717C662.726 93.0952 670.224 89.1336 678.431 86.5868C686.637 84.04 695.409 82.7666 704.747 82.7666C721.443 82.7666 734.884 86.4453 745.071 93.8027C755.541 100.877 763.04 110.498 767.568 122.666C772.378 134.834 774.784 148.841 774.784 164.688V309.43H730.64V182.091C730.64 175.299 730.357 168.508 729.791 161.717C729.225 154.925 727.527 148.558 724.697 142.616C722.15 136.39 718.33 131.438 713.237 127.76C708.426 123.798 701.493 121.817 692.438 121.817C683.666 121.817 676.308 123.798 670.366 127.76C664.706 131.721 660.037 137.098 656.359 143.889C652.963 150.398 650.416 157.472 648.718 165.112C647.303 172.753 646.596 180.393 646.596 188.033V309.43H602.452V181.666C602.452 175.158 602.169 168.508 601.603 161.717C601.037 154.925 599.622 148.558 597.358 142.616C595.094 136.39 591.274 131.438 585.898 127.76C580.804 123.798 573.871 121.817 565.099 121.817C552.365 121.817 542.461 125.496 535.387 132.853C528.595 139.928 523.926 148.7 521.379 159.17C518.833 169.357 517.559 179.12 517.559 188.458V309.43H473.84ZM804.954 390.927V85.7379H846.551L848.673 117.573C856.597 105.971 866.925 97.3398 879.659 91.6803C892.393 85.7379 906.259 82.7666 921.256 82.7666C943.611 82.7666 962.005 87.8602 976.437 98.0473C990.868 107.951 1001.62 121.676 1008.7 139.22C1015.77 156.482 1019.31 175.865 1019.31 197.372C1019.31 219.444 1015.63 239.11 1008.27 256.372C1001.2 273.633 990.161 287.216 975.163 297.12C960.448 307.024 941.772 311.976 919.134 311.976C908.381 311.976 898.477 310.845 889.422 308.581C880.65 306.317 872.868 303.063 866.076 298.818C859.568 294.291 853.767 289.055 848.673 283.113V390.927H804.954ZM913.616 272.926C928.897 272.926 941.065 269.53 950.12 262.739C959.175 255.664 965.684 246.468 969.645 235.149C973.607 223.83 975.588 211.52 975.588 198.22C975.588 184.355 973.465 171.762 969.221 160.443C965.259 148.841 958.609 139.645 949.271 132.853C940.216 125.779 928.048 122.242 912.767 122.242C898.901 122.242 887.158 125.779 877.537 132.853C867.916 139.645 860.558 148.841 855.465 160.443C850.654 172.045 848.249 184.638 848.249 198.22C848.249 212.086 850.513 224.82 855.04 236.422C859.851 247.741 867.067 256.655 876.688 263.163C886.592 269.672 898.901 272.926 913.616 272.926ZM1043.22 309.43V85.7379H1086.94V309.43H1043.22ZM1064.86 56.0255C1056.37 56.0255 1049.44 53.4787 1044.07 48.3852C1038.97 43.0086 1036.43 36.2172 1036.43 28.0109C1036.43 19.8047 1039.11 13.1547 1044.49 8.06119C1049.87 2.68467 1056.66 -0.00359535 1064.86 -0.00359535C1072.5 -0.00359535 1079.15 2.68467 1084.81 8.06119C1090.76 13.1547 1093.73 19.8047 1093.73 28.0109C1093.73 36.2172 1090.9 43.0086 1085.24 48.3852C1079.86 53.4787 1073.07 56.0255 1064.86 56.0255ZM1149.11 313.674C1140.62 313.674 1133.54 310.986 1127.88 305.61C1122.51 300.233 1119.82 293.159 1119.82 284.386C1119.82 275.614 1122.65 268.54 1128.31 263.163C1133.97 257.504 1140.9 254.674 1149.11 254.674C1157.31 254.674 1164.1 257.504 1169.48 263.163C1175.14 268.54 1177.97 275.614 1177.97 284.386C1177.97 293.159 1175.14 300.233 1169.48 305.61C1164.1 310.986 1157.31 313.674 1149.11 313.674Z" fill="#F8F9F2"/>
</svg>
